# MagicaVoxel @ Ephtracy

# group
o 

# material
mtllib chickenReverse1vox.mtl
usemtl palette

# normals
vn -1 0 0
vn 1 0 0
vn 0 0 1
vn 0 0 -1
vn 0 -1 0
vn 0 1 0

# texcoords
vt 0.00195312 0.5
vt 0.00585938 0.5
vt 0.0175781 0.5
vt 0.115234 0.5
vt 0.275391 0.5
vt 0.810547 0.5
vt 0.841797 0.5
vt 0.958984 0.5
vt 0.974609 0.5
vt 0.986328 0.5
vt 0.990234 0.5
vt 0.994141 0.5

# verts
v -0.7 0.5 0.1
v -0.7 0.5 -0.1
v -0.7 0.7 0.2
v -0.7 0.7 0.1
v -0.7 0.8 0.2
v -0.7 0.8 -0.1
v -0.7 1.6 0.2
v -0.7 1.6 -0.1
v -0.5 0 0.6
v -0.5 0 0.2
v -0.5 0 0
v -0.5 0 -0.1
v -0.5 0.1 0.6
v -0.5 0.1 0.2
v -0.5 0.1 0.1
v -0.5 0.8 0.3
v -0.5 0.8 0.2
v -0.5 0.8 0.1
v -0.5 0.8 0
v -0.5 0.8 -0.1
v -0.5 0.8 -0.3
v -0.5 0.9 0.3
v -0.5 0.9 0.2
v -0.5 1.6 0.2
v -0.5 1.6 -0.1
v -0.5 1.7 0.3
v -0.5 1.7 -0.3
v -0.5 2.5 0.9
v -0.5 2.5 -0.2
v -0.5 2.6 0.9
v -0.5 2.6 -0.2
v -0.4 1.8 0.5
v -0.4 1.8 -0.2
v -0.4 2.3 0.3
v -0.4 2.3 0.2
v -0.4 2.4 0.3
v -0.4 2.4 0.2
v -0.4 2.4 0.1
v -0.4 2.4 -0.2
v -0.4 2.4 -0.4
v -0.4 2.5 0.5
v -0.4 2.5 0.1
v -0.4 2.5 -0.2
v -0.4 2.5 -0.4
v -0.4 2.6 0.6
v -0.4 2.6 -0.1
v -0.4 2.7 0.6
v -0.4 2.7 -0.1
v -0.3 0 0.6
v -0.3 0 0.4
v -0.3 0.1 0.6
v -0.3 0.1 0.4
v -0.3 0.9 -0.3
v -0.3 0.9 -0.4
v -0.3 1.3 -0.3
v -0.3 1.3 -0.4
v -0.2 0.8 -0.3
v -0.2 0.8 -0.4
v -0.2 0.8 -0.7
v -0.2 0.9 -0.3
v -0.2 0.9 -0.4
v -0.2 1.1 -0.6
v -0.2 1.1 -0.7
v -0.2 1.2 -0.4
v -0.2 1.2 -0.6
v -0.2 1.7 0.2
v -0.2 1.7 -0.1
v -0.2 1.8 0.2
v -0.2 1.8 -0.1
v -0.2 2.1 0.7
v -0.2 2.1 0.5
v -0.2 2.2 0.8
v -0.2 2.2 0.7
v -0.2 2.2 0.5
v -0.2 2.3 0.8
v -0.2 2.3 0.5
v -0.1 2.7 0.4
v -0.1 2.7 0.2
v -0.1 2.9 0.3
v -0.1 2.9 0.2
v -0.1 3.1 0.4
v -0.1 3.1 0.3
v 0.2 0 0.6
v 0.2 0 0.2
v 0.2 0 0
v 0.2 0 -0.1
v 0.2 0.1 0.6
v 0.2 0.1 0.2
v 0.2 0.1 0.1
v 0.2 0.6 0.2
v 0.2 0.6 0.1
v 0.2 0.6 0
v 0.2 0.6 -0.1
v 0.3 0.7 0.3
v 0.3 0.7 0.2
v 0.3 0.8 0.3
v 0.3 0.8 0.2
v 0.4 0 0.6
v 0.4 0 0.4
v 0.4 0.1 0.6
v 0.4 0.1 0.4
v 0.6 0.3 0.3
v 0.6 0.3 0.2
v 0.6 0.4 0.2
v 0.6 0.4 0.1
v 0.6 0.6 0.2
v 0.6 0.6 0.1
v 0.6 0.6 -0.1
v 0.6 0.7 0.3
v 0.6 0.7 0.2
v 0.6 0.7 0.1
v 0.6 0.7 -0.1
v 0.6 0.8 0.2
v 0.6 0.8 -0.1
v -0.6 0.5 0.1
v -0.6 0.5 -0.1
v -0.6 0.7 0.2
v -0.6 0.7 0.1
v -0.6 0.8 0.2
v -0.6 0.8 -0.1
v -0.4 0 0.6
v -0.4 0 0.4
v -0.4 0.1 0.6
v -0.4 0.1 0.4
v -0.2 0 0.6
v -0.2 0 0.2
v -0.2 0 -0.1
v -0.2 0.1 0.6
v -0.2 0.1 0.2
v -0.2 0.6 0.2
v -0.2 0.6 0.1
v -0.2 0.6 0
v -0.2 0.6 -0.1
v 0.1 2.7 0.4
v 0.1 2.7 0.2
v 0.1 2.9 0.3
v 0.1 2.9 0.2
v 0.1 3.1 0.4
v 0.1 3.1 0.3
v 0.2 0.8 -0.3
v 0.2 0.8 -0.4
v 0.2 0.8 -0.7
v 0.2 0.9 -0.3
v 0.2 0.9 -0.4
v 0.2 1.1 -0.6
v 0.2 1.1 -0.7
v 0.2 1.2 -0.4
v 0.2 1.2 -0.6
v 0.2 1.7 0.2
v 0.2 1.7 -0.1
v 0.2 1.8 0.2
v 0.2 1.8 -0.1
v 0.2 2.1 0.7
v 0.2 2.1 0.5
v 0.2 2.2 0.8
v 0.2 2.2 0.7
v 0.2 2.2 0.5
v 0.2 2.3 0.8
v 0.2 2.3 0.5
v 0.3 0 0.6
v 0.3 0 0.4
v 0.3 0.1 0.6
v 0.3 0.1 0.4
v 0.3 0.9 -0.3
v 0.3 0.9 -0.4
v 0.3 1.3 -0.3
v 0.3 1.3 -0.4
v 0.4 0.7 0.3
v 0.4 0.7 0.2
v 0.4 0.8 0.3
v 0.4 0.8 0.2
v 0.4 1.8 0.5
v 0.4 1.8 -0.2
v 0.4 2.3 0.3
v 0.4 2.3 0.2
v 0.4 2.4 0.3
v 0.4 2.4 0.2
v 0.4 2.4 0.1
v 0.4 2.4 -0.2
v 0.4 2.4 -0.4
v 0.4 2.5 0.5
v 0.4 2.5 0.1
v 0.4 2.5 -0.2
v 0.4 2.5 -0.4
v 0.4 2.6 0.6
v 0.4 2.6 -0.1
v 0.4 2.7 0.6
v 0.4 2.7 -0.1
v 0.5 0 0.6
v 0.5 0 0.2
v 0.5 0 -0.1
v 0.5 0.1 0.6
v 0.5 0.1 0.2
v 0.5 0.8 0.3
v 0.5 0.8 0.2
v 0.5 0.8 -0.1
v 0.5 0.8 -0.3
v 0.5 0.9 0.3
v 0.5 0.9 0.2
v 0.5 1.6 0.2
v 0.5 1.6 -0.1
v 0.5 1.7 0.3
v 0.5 1.7 -0.3
v 0.5 2.5 0.9
v 0.5 2.5 -0.2
v 0.5 2.6 0.9
v 0.5 2.6 -0.2
v 0.7 0.3 0.3
v 0.7 0.3 0.2
v 0.7 0.4 0.2
v 0.7 0.4 0.1
v 0.7 0.6 0.2
v 0.7 0.6 0.1
v 0.7 0.6 -0.1
v 0.7 0.7 0.3
v 0.7 0.7 0.2
v 0.7 0.7 0.1
v 0.7 0.7 -0.1
v 0.7 0.8 0.2
v 0.7 0.8 -0.1
v 0.7 1.6 0.2
v 0.7 1.6 -0.1
v -0.5 2.5 0.9
v -0.5 2.6 0.9
v 0.5 2.5 0.9
v 0.5 2.6 0.9
v -0.2 2.2 0.8
v -0.2 2.3 0.8
v 0.2 2.2 0.8
v 0.2 2.3 0.8
v -0.2 2.1 0.7
v -0.2 2.2 0.7
v 0.2 2.1 0.7
v 0.2 2.2 0.7
v -0.5 0 0.6
v -0.5 0.1 0.6
v -0.4 0 0.6
v -0.4 0.1 0.6
v -0.4 2.6 0.6
v -0.4 2.7 0.6
v -0.3 0 0.6
v -0.3 0.1 0.6
v -0.2 0 0.6
v -0.2 0.1 0.6
v 0.2 0 0.6
v 0.2 0.1 0.6
v 0.3 0 0.6
v 0.3 0.1 0.6
v 0.4 0 0.6
v 0.4 0.1 0.6
v 0.4 2.6 0.6
v 0.4 2.7 0.6
v 0.5 0 0.6
v 0.5 0.1 0.6
v -0.4 1.8 0.5
v -0.4 2.5 0.5
v -0.2 2.1 0.5
v -0.2 2.2 0.5
v -0.2 2.3 0.5
v 0.2 2.1 0.5
v 0.2 2.2 0.5
v 0.2 2.3 0.5
v 0.4 1.8 0.5
v 0.4 2.5 0.5
v -0.4 0 0.4
v -0.4 0.1 0.4
v -0.3 0 0.4
v -0.3 0.1 0.4
v -0.1 2.7 0.4
v -0.1 3.1 0.4
v 0.1 2.7 0.4
v 0.1 3.1 0.4
v 0.3 0 0.4
v 0.3 0.1 0.4
v 0.4 0 0.4
v 0.4 0.1 0.4
v -0.5 0.8 0.3
v -0.5 0.9 0.3
v -0.5 1.7 0.3
v -0.2 0.9 0.3
v -0.2 1.5 0.3
v -0.2 1.6 0.3
v -0.2 1.7 0.3
v -0.1 0.8 0.3
v -0.1 0.9 0.3
v -0.1 1 0.3
v -0.1 1.5 0.3
v -0.1 1.6 0.3
v 0.1 0.8 0.3
v 0.1 0.9 0.3
v 0.1 1 0.3
v 0.1 1.5 0.3
v 0.1 1.6 0.3
v 0.2 0.9 0.3
v 0.2 1.5 0.3
v 0.2 1.6 0.3
v 0.2 1.7 0.3
v 0.3 0.7 0.3
v 0.3 0.8 0.3
v 0.4 0.7 0.3
v 0.4 0.8 0.3
v 0.5 0.8 0.3
v 0.5 0.9 0.3
v 0.5 1.7 0.3
v 0.6 0.3 0.3
v 0.6 0.7 0.3
v 0.7 0.3 0.3
v 0.7 0.7 0.3
v -0.7 0.7 0.2
v -0.7 0.8 0.2
v -0.7 1.6 0.2
v -0.6 0.7 0.2
v -0.6 0.8 0.2
v -0.5 0.1 0.2
v -0.5 0.8 0.2
v -0.5 0.9 0.2
v -0.5 1.6 0.2
v -0.2 0.1 0.2
v -0.2 0.6 0.2
v -0.2 1.7 0.2
v -0.2 1.8 0.2
v -0.1 0.8 0.2
v 0.1 0.8 0.2
v 0.2 0.1 0.2
v 0.2 0.6 0.2
v 0.2 1.7 0.2
v 0.2 1.8 0.2
v 0.3 0.7 0.2
v 0.3 0.8 0.2
v 0.4 0.7 0.2
v 0.4 0.8 0.2
v 0.5 0.1 0.2
v 0.5 0.8 0.2
v 0.5 0.9 0.2
v 0.5 1.6 0.2
v 0.6 0.7 0.2
v 0.6 0.8 0.2
v 0.7 0.7 0.2
v 0.7 0.8 0.2
v 0.7 1.6 0.2
v -0.7 0.5 0.1
v -0.7 0.7 0.1
v -0.6 0.5 0.1
v -0.6 0.7 0.1
v -0.1 2.9 0.3
v -0.1 3.1 0.3
v 0.1 2.9 0.3
v 0.1 3.1 0.3
v -0.1 2.7 0.2
v -0.1 2.9 0.2
v 0.1 2.7 0.2
v 0.1 2.9 0.2
v 0.6 0.3 0.2
v 0.6 0.4 0.2
v 0.7 0.3 0.2
v 0.7 0.4 0.2
v 0.6 0.4 0.1
v 0.6 0.6 0.1
v 0.7 0.4 0.1
v 0.7 0.6 0.1
v -0.7 0.5 -0.1
v -0.7 0.8 -0.1
v -0.7 1.6 -0.1
v -0.6 0.5 -0.1
v -0.6 0.8 -0.1
v -0.5 0 -0.1
v -0.5 0.8 -0.1
v -0.5 1.6 -0.1
v -0.4 2.6 -0.1
v -0.4 2.7 -0.1
v -0.2 0 -0.1
v -0.2 0.6 -0.1
v -0.2 1.7 -0.1
v -0.2 1.8 -0.1
v 0.2 0 -0.1
v 0.2 0.6 -0.1
v 0.2 1.7 -0.1
v 0.2 1.8 -0.1
v 0.4 2.6 -0.1
v 0.4 2.7 -0.1
v 0.5 0 -0.1
v 0.5 0.8 -0.1
v 0.5 1.6 -0.1
v 0.6 0.6 -0.1
v 0.6 0.7 -0.1
v 0.6 0.8 -0.1
v 0.7 0.6 -0.1
v 0.7 0.7 -0.1
v 0.7 0.8 -0.1
v 0.7 1.6 -0.1
v -0.5 2.5 -0.2
v -0.5 2.6 -0.2
v -0.4 1.8 -0.2
v -0.4 2.4 -0.2
v -0.4 2.5 -0.2
v 0.4 1.8 -0.2
v 0.4 2.4 -0.2
v 0.4 2.5 -0.2
v 0.5 2.5 -0.2
v 0.5 2.6 -0.2
v -0.5 0.8 -0.3
v -0.5 1.7 -0.3
v -0.3 0.9 -0.3
v -0.3 1.3 -0.3
v -0.2 0.8 -0.3
v -0.2 0.9 -0.3
v 0.2 0.8 -0.3
v 0.2 0.9 -0.3
v 0.3 0.9 -0.3
v 0.3 1.3 -0.3
v 0.5 0.8 -0.3
v 0.5 1.7 -0.3
v -0.4 2.4 -0.4
v -0.4 2.5 -0.4
v -0.3 0.9 -0.4
v -0.3 1.3 -0.4
v -0.2 0.9 -0.4
v -0.2 1.2 -0.4
v 0.2 0.9 -0.4
v 0.2 1.2 -0.4
v 0.3 0.9 -0.4
v 0.3 1.3 -0.4
v 0.4 2.4 -0.4
v 0.4 2.5 -0.4
v -0.2 1.1 -0.6
v -0.2 1.2 -0.6
v 0.2 1.1 -0.6
v 0.2 1.2 -0.6
v -0.2 0.8 -0.7
v -0.2 1.1 -0.7
v 0.2 0.8 -0.7
v 0.2 1.1 -0.7
v -0.5 0 0.6
v -0.4 0 0.6
v -0.3 0 0.6
v -0.2 0 0.6
v 0.2 0 0.6
v 0.3 0 0.6
v 0.4 0 0.6
v 0.5 0 0.6
v -0.4 0 0.4
v -0.3 0 0.4
v 0.3 0 0.4
v 0.4 0 0.4
v -0.5 0 0.2
v -0.3 0 0.2
v -0.2 0 0.2
v 0.2 0 0.2
v 0.4 0 0.2
v 0.5 0 0.2
v -0.5 0 0
v -0.3 0 0
v 0.2 0 0
v 0.4 0 0
v -0.5 0 -0.1
v -0.2 0 -0.1
v 0.2 0 -0.1
v 0.5 0 -0.1
v 0.6 0.3 0.3
v 0.7 0.3 0.3
v 0.6 0.3 0.2
v 0.7 0.3 0.2
v 0.6 0.4 0.2
v 0.7 0.4 0.2
v 0.6 0.4 0.1
v 0.7 0.4 0.1
v -0.7 0.5 0.1
v -0.6 0.5 0.1
v -0.7 0.5 -0.1
v -0.6 0.5 -0.1
v -0.2 0.6 0.2
v 0.2 0.6 0.2
v -0.2 0.6 0.1
v 0.2 0.6 0.1
v 0.6 0.6 0.1
v 0.7 0.6 0.1
v -0.2 0.6 0
v 0.2 0.6 0
v -0.2 0.6 -0.1
v 0.2 0.6 -0.1
v 0.6 0.6 -0.1
v 0.7 0.6 -0.1
v 0.3 0.7 0.3
v 0.4 0.7 0.3
v -0.7 0.7 0.2
v -0.6 0.7 0.2
v 0.3 0.7 0.2
v 0.4 0.7 0.2
v -0.7 0.7 0.1
v -0.6 0.7 0.1
v -0.5 0.8 0.3
v -0.1 0.8 0.3
v 0.1 0.8 0.3
v 0.3 0.8 0.3
v 0.4 0.8 0.3
v 0.5 0.8 0.3
v -0.6 0.8 0.2
v -0.5 0.8 0.2
v -0.1 0.8 0.2
v 0.1 0.8 0.2
v 0.3 0.8 0.2
v 0.4 0.8 0.2
v 0.5 0.8 0.2
v 0.6 0.8 0.2
v -0.5 0.8 0.1
v -0.5 0.8 0
v -0.6 0.8 -0.1
v -0.5 0.8 -0.1
v 0.5 0.8 -0.1
v 0.6 0.8 -0.1
v -0.5 0.8 -0.3
v -0.2 0.8 -0.3
v 0.2 0.8 -0.3
v 0.5 0.8 -0.3
v -0.2 0.8 -0.4
v 0.2 0.8 -0.4
v -0.2 0.8 -0.7
v 0.2 0.8 -0.7
v -0.3 0.9 -0.3
v -0.2 0.9 -0.3
v 0.2 0.9 -0.3
v 0.3 0.9 -0.3
v -0.3 0.9 -0.4
v -0.2 0.9 -0.4
v 0.2 0.9 -0.4
v 0.3 0.9 -0.4
v -0.4 1.8 0.5
v 0.4 1.8 0.5
v -0.2 1.8 0.2
v 0.2 1.8 0.2
v -0.2 1.8 -0.1
v 0.2 1.8 -0.1
v -0.4 1.8 -0.2
v 0.4 1.8 -0.2
v -0.2 2.1 0.7
v 0.2 2.1 0.7
v -0.2 2.1 0.5
v 0.2 2.1 0.5
v -0.2 2.2 0.8
v 0.2 2.2 0.8
v -0.2 2.2 0.7
v 0.2 2.2 0.7
v -0.4 2.4 -0.2
v 0.4 2.4 -0.2
v -0.4 2.4 -0.4
v 0.4 2.4 -0.4
v -0.5 2.5 0.9
v 0.5 2.5 0.9
v -0.4 2.5 0.6
v 0.4 2.5 0.6
v -0.4 2.5 0.5
v 0.4 2.5 0.5
v -0.4 2.5 0.1
v 0.4 2.5 0.1
v -0.5 2.5 -0.2
v -0.4 2.5 -0.2
v 0.4 2.5 -0.2
v 0.5 2.5 -0.2
v -0.5 0.1 0.6
v -0.4 0.1 0.6
v -0.3 0.1 0.6
v -0.2 0.1 0.6
v 0.2 0.1 0.6
v 0.3 0.1 0.6
v 0.4 0.1 0.6
v 0.5 0.1 0.6
v -0.4 0.1 0.4
v -0.3 0.1 0.4
v 0.3 0.1 0.4
v 0.4 0.1 0.4
v -0.5 0.1 0.2
v -0.2 0.1 0.2
v 0.2 0.1 0.2
v 0.5 0.1 0.2
v 0.6 0.7 0.3
v 0.7 0.7 0.3
v 0.6 0.7 0.2
v 0.7 0.7 0.2
v -0.2 1.1 -0.6
v 0.2 1.1 -0.6
v -0.2 1.1 -0.7
v 0.2 1.1 -0.7
v -0.2 1.2 -0.4
v 0.2 1.2 -0.4
v -0.2 1.2 -0.6
v 0.2 1.2 -0.6
v -0.3 1.3 -0.3
v 0.3 1.3 -0.3
v -0.3 1.3 -0.4
v 0.3 1.3 -0.4
v -0.7 1.6 0.2
v -0.5 1.6 0.2
v 0.5 1.6 0.2
v 0.7 1.6 0.2
v -0.7 1.6 -0.1
v -0.5 1.6 -0.1
v 0.5 1.6 -0.1
v 0.7 1.6 -0.1
v -0.5 1.7 0.3
v -0.2 1.7 0.3
v 0.2 1.7 0.3
v 0.5 1.7 0.3
v -0.2 1.7 0.2
v 0.2 1.7 0.2
v -0.2 1.7 -0.1
v 0.2 1.7 -0.1
v -0.5 1.7 -0.3
v 0.5 1.7 -0.3
v -0.2 2.3 0.8
v 0.2 2.3 0.8
v -0.2 2.3 0.5
v 0.2 2.3 0.5
v -0.4 2.5 -0.2
v 0.4 2.5 -0.2
v -0.4 2.5 -0.4
v 0.4 2.5 -0.4
v -0.5 2.6 0.9
v 0.5 2.6 0.9
v -0.4 2.6 0.6
v 0.4 2.6 0.6
v -0.4 2.6 -0.1
v 0.4 2.6 -0.1
v -0.5 2.6 -0.2
v 0.5 2.6 -0.2
v -0.4 2.7 0.6
v 0.4 2.7 0.6
v -0.1 2.7 0.4
v 0.1 2.7 0.4
v -0.1 2.7 0.2
v 0.1 2.7 0.2
v -0.4 2.7 -0.1
v 0.4 2.7 -0.1
v -0.1 2.9 0.3
v 0.1 2.9 0.3
v -0.1 2.9 0.2
v 0.1 2.9 0.2
v -0.1 3.1 0.4
v 0.1 3.1 0.4
v -0.1 3.1 0.3
v 0.1 3.1 0.3

# faces
f 4/2/1 2/2/1 1/2/1
f 5/2/1 4/2/1 3/2/1
f 6/2/1 2/2/1 4/2/1
f 6/2/1 4/2/1 5/2/1
f 7/12/1 6/12/1 5/12/1
f 8/12/1 6/12/1 7/12/1
f 13/3/1 10/3/1 9/3/1
f 14/8/1 11/8/1 10/8/1
f 14/3/1 10/3/1 13/3/1
f 15/8/1 11/8/1 14/8/1
f 17/1/1 15/1/1 14/1/1
f 18/8/1 11/8/1 15/8/1
f 18/1/1 15/1/1 17/1/1
f 19/1/1 12/1/1 11/1/1
f 19/8/1 11/8/1 18/8/1
f 20/1/1 12/1/1 19/1/1
f 22/11/1 17/11/1 16/11/1
f 23/11/1 17/11/1 22/11/1
f 24/12/1 23/12/1 22/12/1
f 25/12/1 21/12/1 20/12/1
f 26/12/1 24/12/1 22/12/1
f 26/12/1 25/12/1 24/12/1
f 27/12/1 21/12/1 25/12/1
f 27/12/1 25/12/1 26/12/1
f 30/6/1 29/6/1 28/6/1
f 31/6/1 29/6/1 30/6/1
f 34/1/1 33/1/1 32/1/1
f 35/1/1 33/1/1 34/1/1
f 36/1/1 34/1/1 32/1/1
f 36/11/1 35/11/1 34/11/1
f 37/1/1 33/1/1 35/1/1
f 37/11/1 35/11/1 36/11/1
f 38/1/1 33/1/1 37/1/1
f 39/1/1 33/1/1 38/1/1
f 41/1/1 36/1/1 32/1/1
f 41/1/1 37/1/1 36/1/1
f 41/1/1 38/1/1 37/1/1
f 42/6/1 40/6/1 39/6/1
f 42/1/1 38/1/1 41/1/1
f 42/6/1 39/6/1 38/6/1
f 43/6/1 40/6/1 42/6/1
f 44/6/1 40/6/1 43/6/1
f 47/6/1 46/6/1 45/6/1
f 48/6/1 46/6/1 47/6/1
f 51/3/1 50/3/1 49/3/1
f 52/3/1 50/3/1 51/3/1
f 55/12/1 54/12/1 53/12/1
f 56/12/1 54/12/1 55/12/1
f 60/12/1 58/12/1 57/12/1
f 61/1/1 59/1/1 58/1/1
f 61/12/1 58/12/1 60/12/1
f 62/1/1 59/1/1 61/1/1
f 63/1/1 59/1/1 62/1/1
f 64/1/1 62/1/1 61/1/1
f 65/1/1 62/1/1 64/1/1
f 68/1/1 67/1/1 66/1/1
f 69/1/1 67/1/1 68/1/1
f 73/5/1 71/5/1 70/5/1
f 74/5/1 71/5/1 73/5/1
f 75/4/1 73/4/1 72/4/1
f 75/4/1 74/4/1 73/4/1
f 76/4/1 74/4/1 75/4/1
f 79/5/1 78/5/1 77/5/1
f 80/5/1 78/5/1 79/5/1
f 81/5/1 79/5/1 77/5/1
f 82/5/1 79/5/1 81/5/1
f 87/3/1 84/3/1 83/3/1
f 88/8/1 85/8/1 84/8/1
f 88/3/1 84/3/1 87/3/1
f 89/8/1 85/8/1 88/8/1
f 90/1/1 89/1/1 88/1/1
f 91/8/1 85/8/1 89/8/1
f 91/1/1 89/1/1 90/1/1
f 92/1/1 86/1/1 85/1/1
f 92/8/1 85/8/1 91/8/1
f 93/1/1 86/1/1 92/1/1
f 96/1/1 95/1/1 94/1/1
f 97/1/1 95/1/1 96/1/1
f 100/3/1 99/3/1 98/3/1
f 101/3/1 99/3/1 100/3/1
f 104/10/1 103/10/1 102/10/1
f 106/10/1 104/10/1 102/10/1
f 106/10/1 105/10/1 104/10/1
f 107/10/1 105/10/1 106/10/1
f 109/10/1 106/10/1 102/10/1
f 110/2/1 107/2/1 106/2/1
f 110/10/1 106/10/1 109/10/1
f 111/10/1 108/10/1 107/10/1
f 111/2/1 107/2/1 110/2/1
f 112/10/1 108/10/1 111/10/1
f 113/2/1 111/2/1 110/2/1
f 113/2/1 112/2/1 111/2/1
f 114/2/1 112/2/1 113/2/1
f 115/2/2 116/2/2 118/2/2
f 117/2/2 118/2/2 119/2/2
f 118/2/2 116/2/2 120/2/2
f 119/2/2 118/2/2 120/2/2
f 121/3/2 122/3/2 123/3/2
f 123/3/2 122/3/2 124/3/2
f 125/3/2 126/3/2 128/3/2
f 126/1/2 127/1/2 129/1/2
f 128/3/2 126/3/2 129/3/2
f 129/1/2 127/1/2 130/1/2
f 130/1/2 127/1/2 131/1/2
f 131/1/2 127/1/2 132/1/2
f 132/1/2 127/1/2 133/1/2
f 134/5/2 135/5/2 136/5/2
f 136/5/2 135/5/2 137/5/2
f 134/5/2 136/5/2 138/5/2
f 138/5/2 136/5/2 139/5/2
f 140/12/2 141/12/2 143/12/2
f 141/1/2 142/1/2 144/1/2
f 143/12/2 141/12/2 144/12/2
f 144/1/2 142/1/2 145/1/2
f 145/1/2 142/1/2 146/1/2
f 144/1/2 145/1/2 147/1/2
f 147/1/2 145/1/2 148/1/2
f 149/1/2 150/1/2 151/1/2
f 151/1/2 150/1/2 152/1/2
f 153/5/2 154/5/2 156/5/2
f 156/5/2 154/5/2 157/5/2
f 155/4/2 156/4/2 158/4/2
f 156/4/2 157/4/2 158/4/2
f 158/4/2 157/4/2 159/4/2
f 160/3/2 161/3/2 162/3/2
f 162/3/2 161/3/2 163/3/2
f 164/12/2 165/12/2 166/12/2
f 166/12/2 165/12/2 167/12/2
f 168/1/2 169/1/2 170/1/2
f 170/1/2 169/1/2 171/1/2
f 172/1/2 173/1/2 174/1/2
f 174/1/2 173/1/2 175/1/2
f 172/1/2 174/1/2 176/1/2
f 174/11/2 175/11/2 176/11/2
f 175/1/2 173/1/2 177/1/2
f 176/11/2 175/11/2 177/11/2
f 177/1/2 173/1/2 178/1/2
f 178/1/2 173/1/2 179/1/2
f 172/1/2 176/1/2 181/1/2
f 176/1/2 177/1/2 181/1/2
f 177/1/2 178/1/2 181/1/2
f 179/6/2 180/6/2 182/6/2
f 181/1/2 178/1/2 182/1/2
f 178/6/2 179/6/2 182/6/2
f 182/6/2 180/6/2 183/6/2
f 183/6/2 180/6/2 184/6/2
f 185/6/2 186/6/2 187/6/2
f 187/6/2 186/6/2 188/6/2
f 189/3/2 190/3/2 192/3/2
f 190/1/2 191/1/2 193/1/2
f 192/3/2 190/3/2 193/3/2
f 193/1/2 191/1/2 195/1/2
f 195/1/2 191/1/2 196/1/2
f 194/11/2 195/11/2 198/11/2
f 198/11/2 195/11/2 199/11/2
f 198/12/2 199/12/2 200/12/2
f 196/12/2 197/12/2 201/12/2
f 198/12/2 200/12/2 202/12/2
f 200/12/2 201/12/2 202/12/2
f 201/12/2 197/12/2 203/12/2
f 202/12/2 201/12/2 203/12/2
f 204/6/2 205/6/2 206/6/2
f 206/6/2 205/6/2 207/6/2
f 208/10/2 209/10/2 210/10/2
f 208/10/2 210/10/2 212/10/2
f 210/10/2 211/10/2 212/10/2
f 212/10/2 211/10/2 213/10/2
f 208/10/2 212/10/2 215/10/2
f 212/2/2 213/2/2 216/2/2
f 215/10/2 212/10/2 216/10/2
f 213/10/2 214/10/2 217/10/2
f 216/2/2 213/2/2 217/2/2
f 217/10/2 214/10/2 218/10/2
f 216/2/2 217/2/2 219/2/2
f 217/2/2 218/2/2 219/2/2
f 219/2/2 218/2/2 220/2/2
f 219/12/2 220/12/2 221/12/2
f 221/12/2 220/12/2 222/12/2
f 225/6/3 224/6/3 223/6/3
f 226/6/3 224/6/3 225/6/3
f 229/4/3 228/4/3 227/4/3
f 230/4/3 228/4/3 229/4/3
f 233/5/3 232/5/3 231/5/3
f 234/5/3 232/5/3 233/5/3
f 237/3/3 236/3/3 235/3/3
f 238/3/3 236/3/3 237/3/3
f 243/3/3 242/3/3 241/3/3
f 244/3/3 242/3/3 243/3/3
f 247/3/3 246/3/3 245/3/3
f 248/3/3 246/3/3 247/3/3
f 251/6/3 240/6/3 239/6/3
f 252/6/3 240/6/3 251/6/3
f 253/3/3 250/3/3 249/3/3
f 254/3/3 250/3/3 253/3/3
f 257/1/3 256/1/3 255/1/3
f 258/1/3 256/1/3 257/1/3
f 259/1/3 256/1/3 258/1/3
f 260/1/3 257/1/3 255/1/3
f 262/1/3 256/1/3 259/1/3
f 263/1/3 261/1/3 260/1/3
f 263/1/3 262/1/3 261/1/3
f 263/1/3 260/1/3 255/1/3
f 264/1/3 256/1/3 262/1/3
f 264/1/3 262/1/3 263/1/3
f 267/3/3 266/3/3 265/3/3
f 268/3/3 266/3/3 267/3/3
f 271/5/3 270/5/3 269/5/3
f 272/5/3 270/5/3 271/5/3
f 275/3/3 274/3/3 273/3/3
f 276/3/3 274/3/3 275/3/3
f 280/11/3 278/11/3 277/11/3
f 280/12/3 279/12/3 278/12/3
f 281/12/3 279/12/3 280/12/3
f 282/12/3 279/12/3 281/12/3
f 283/12/3 279/12/3 282/12/3
f 284/11/3 280/11/3 277/11/3
f 285/1/3 281/1/3 280/1/3
f 285/11/3 280/11/3 284/11/3
f 286/1/3 281/1/3 285/1/3
f 287/12/3 282/12/3 281/12/3
f 287/1/3 281/1/3 286/1/3
f 288/1/3 283/1/3 282/1/3
f 288/12/3 282/12/3 287/12/3
f 289/9/3 285/9/3 284/9/3
f 290/1/3 286/1/3 285/1/3
f 290/9/3 285/9/3 289/9/3
f 291/7/3 287/7/3 286/7/3
f 291/1/3 286/1/3 290/1/3
f 292/11/3 288/11/3 287/11/3
f 292/7/3 287/7/3 291/7/3
f 293/1/3 283/1/3 288/1/3
f 293/11/3 288/11/3 292/11/3
f 294/11/3 290/11/3 289/11/3
f 294/1/3 292/1/3 291/1/3
f 294/1/3 291/1/3 290/1/3
f 295/12/3 293/12/3 292/12/3
f 295/1/3 292/1/3 294/1/3
f 296/1/3 283/1/3 293/1/3
f 296/12/3 293/12/3 295/12/3
f 297/1/3 283/1/3 296/1/3
f 299/11/3 294/11/3 289/11/3
f 300/1/3 299/1/3 298/1/3
f 301/11/3 294/11/3 299/11/3
f 301/1/3 299/1/3 300/1/3
f 302/11/3 294/11/3 301/11/3
f 303/12/3 295/12/3 294/12/3
f 303/11/3 294/11/3 302/11/3
f 303/12/3 296/12/3 295/12/3
f 303/12/3 297/12/3 296/12/3
f 304/12/3 297/12/3 303/12/3
f 307/10/3 306/10/3 305/10/3
f 308/10/3 306/10/3 307/10/3
f 312/2/3 310/2/3 309/2/3
f 313/12/3 311/12/3 310/12/3
f 313/2/3 310/2/3 312/2/3
f 315/12/3 311/12/3 313/12/3
f 316/12/3 311/12/3 315/12/3
f 317/12/3 311/12/3 316/12/3
f 318/1/3 315/1/3 314/1/3
f 319/1/3 315/1/3 318/1/3
f 322/1/3 315/1/3 319/1/3
f 323/1/3 322/1/3 319/1/3
f 325/1/3 323/1/3 319/1/3
f 326/1/3 321/1/3 320/1/3
f 327/1/3 321/1/3 326/1/3
f 328/1/3 325/1/3 324/1/3
f 328/1/3 323/1/3 325/1/3
f 329/1/3 323/1/3 328/1/3
f 330/1/3 328/1/3 324/1/3
f 332/1/3 330/1/3 324/1/3
f 332/1/3 331/1/3 330/1/3
f 333/1/3 331/1/3 332/1/3
f 337/12/3 335/12/3 334/12/3
f 337/12/3 334/12/3 333/12/3
f 338/2/3 337/2/3 336/2/3
f 339/12/3 335/12/3 337/12/3
f 339/2/3 337/2/3 338/2/3
f 340/12/3 335/12/3 339/12/3
f 343/2/3 342/2/3 341/2/3
f 344/2/3 342/2/3 343/2/3
f 345/5/4 346/5/4 347/5/4
f 347/5/4 346/5/4 348/5/4
f 349/5/4 350/5/4 351/5/4
f 351/5/4 350/5/4 352/5/4
f 353/10/4 354/10/4 355/10/4
f 355/10/4 354/10/4 356/10/4
f 357/10/4 358/10/4 359/10/4
f 359/10/4 358/10/4 360/10/4
f 361/2/4 362/2/4 364/2/4
f 362/12/4 363/12/4 365/12/4
f 364/2/4 362/2/4 365/2/4
f 365/12/4 363/12/4 367/12/4
f 367/12/4 363/12/4 368/12/4
f 366/1/4 367/1/4 371/1/4
f 371/1/4 367/1/4 372/1/4
f 372/1/4 367/1/4 376/1/4
f 373/1/4 374/1/4 377/1/4
f 377/1/4 374/1/4 378/1/4
f 369/6/4 370/6/4 379/6/4
f 379/6/4 370/6/4 380/6/4
f 375/1/4 376/1/4 381/1/4
f 376/1/4 367/1/4 382/1/4
f 381/1/4 376/1/4 382/1/4
f 382/12/4 383/12/4 386/12/4
f 384/10/4 385/10/4 387/10/4
f 385/2/4 386/2/4 388/2/4
f 387/10/4 385/10/4 388/10/4
f 386/12/4 383/12/4 389/12/4
f 388/2/4 386/2/4 389/2/4
f 389/12/4 383/12/4 390/12/4
f 391/6/4 392/6/4 395/6/4
f 393/1/4 394/1/4 396/1/4
f 396/1/4 394/1/4 397/1/4
f 395/6/4 392/6/4 398/6/4
f 398/6/4 392/6/4 399/6/4
f 399/6/4 392/6/4 400/6/4
f 401/12/4 402/12/4 403/12/4
f 403/12/4 402/12/4 404/12/4
f 401/12/4 403/12/4 405/12/4
f 405/12/4 403/12/4 406/12/4
f 407/12/4 408/12/4 409/12/4
f 404/12/4 402/12/4 410/12/4
f 407/12/4 409/12/4 411/12/4
f 409/12/4 410/12/4 411/12/4
f 410/12/4 402/12/4 412/12/4
f 411/12/4 410/12/4 412/12/4
f 415/12/4 416/12/4 417/12/4
f 417/12/4 416/12/4 418/12/4
f 418/12/4 416/12/4 420/12/4
f 419/12/4 420/12/4 421/12/4
f 420/12/4 416/12/4 422/12/4
f 421/12/4 420/12/4 422/12/4
f 413/6/4 414/6/4 423/6/4
f 423/6/4 414/6/4 424/6/4
f 425/1/4 426/1/4 427/1/4
f 427/1/4 426/1/4 428/1/4
f 429/1/4 430/1/4 431/1/4
f 431/1/4 430/1/4 432/1/4
f 441/3/5 434/3/5 433/3/5
f 442/3/5 436/3/5 435/3/5
f 443/3/5 438/3/5 437/3/5
f 444/3/5 440/3/5 439/3/5
f 445/3/5 441/3/5 433/3/5
f 445/3/5 442/3/5 441/3/5
f 446/3/5 436/3/5 442/3/5
f 446/3/5 442/3/5 445/3/5
f 447/3/5 436/3/5 446/3/5
f 448/3/5 443/3/5 437/3/5
f 448/3/5 444/3/5 443/3/5
f 449/3/5 440/3/5 444/3/5
f 449/3/5 444/3/5 448/3/5
f 450/3/5 440/3/5 449/3/5
f 451/8/5 446/8/5 445/8/5
f 452/1/5 447/1/5 446/1/5
f 452/8/5 446/8/5 451/8/5
f 453/8/5 449/8/5 448/8/5
f 454/1/5 450/1/5 449/1/5
f 454/8/5 449/8/5 453/8/5
f 455/1/5 452/1/5 451/1/5
f 456/1/5 447/1/5 452/1/5
f 456/1/5 452/1/5 455/1/5
f 457/1/5 454/1/5 453/1/5
f 458/1/5 450/1/5 454/1/5
f 458/1/5 454/1/5 457/1/5
f 461/10/5 460/10/5 459/10/5
f 462/10/5 460/10/5 461/10/5
f 465/10/5 464/10/5 463/10/5
f 466/10/5 464/10/5 465/10/5
f 469/2/5 468/2/5 467/2/5
f 470/2/5 468/2/5 469/2/5
f 473/1/5 472/1/5 471/1/5
f 474/1/5 472/1/5 473/1/5
f 477/8/5 474/8/5 473/8/5
f 478/8/5 474/8/5 477/8/5
f 479/1/5 478/1/5 477/1/5
f 480/1/5 478/1/5 479/1/5
f 481/10/5 476/10/5 475/10/5
f 482/10/5 476/10/5 481/10/5
f 487/1/5 484/1/5 483/1/5
f 488/1/5 484/1/5 487/1/5
f 489/2/5 486/2/5 485/2/5
f 490/2/5 486/2/5 489/2/5
f 498/11/5 492/11/5 491/11/5
f 499/9/5 493/9/5 492/9/5
f 499/11/5 492/11/5 498/11/5
f 500/11/5 494/11/5 493/11/5
f 500/9/5 493/9/5 499/9/5
f 501/11/5 494/11/5 500/11/5
f 502/11/5 496/11/5 495/11/5
f 503/11/5 496/11/5 502/11/5
f 505/12/5 498/12/5 497/12/5
f 506/12/5 505/12/5 497/12/5
f 507/12/5 506/12/5 497/12/5
f 508/12/5 506/12/5 507/12/5
f 509/12/5 504/12/5 503/12/5
f 510/12/5 504/12/5 509/12/5
f 511/12/5 509/12/5 508/12/5
f 512/12/5 509/12/5 511/12/5
f 513/12/5 509/12/5 512/12/5
f 514/12/5 509/12/5 513/12/5
f 515/12/5 513/12/5 512/12/5
f 516/12/5 513/12/5 515/12/5
f 517/1/5 516/1/5 515/1/5
f 518/1/5 516/1/5 517/1/5
f 523/12/5 520/12/5 519/12/5
f 524/12/5 520/12/5 523/12/5
f 525/12/5 522/12/5 521/12/5
f 526/12/5 522/12/5 525/12/5
f 529/1/5 528/1/5 527/1/5
f 530/1/5 528/1/5 529/1/5
f 531/1/5 529/1/5 527/1/5
f 532/1/5 528/1/5 530/1/5
f 533/1/5 531/1/5 527/1/5
f 533/1/5 532/1/5 531/1/5
f 534/1/5 528/1/5 532/1/5
f 534/1/5 532/1/5 533/1/5
f 537/5/5 536/5/5 535/5/5
f 538/5/5 536/5/5 537/5/5
f 541/4/5 540/4/5 539/4/5
f 542/4/5 540/4/5 541/4/5
f 545/6/5 544/6/5 543/6/5
f 546/6/5 544/6/5 545/6/5
f 549/6/5 548/6/5 547/6/5
f 550/6/5 548/6/5 549/6/5
f 551/6/5 549/6/5 547/6/5
f 551/8/5 550/8/5 549/8/5
f 552/6/5 548/6/5 550/6/5
f 552/8/5 550/8/5 551/8/5
f 553/6/5 551/6/5 547/6/5
f 554/6/5 548/6/5 552/6/5
f 555/6/5 553/6/5 547/6/5
f 556/6/5 553/6/5 555/6/5
f 557/6/5 548/6/5 554/6/5
f 558/6/5 548/6/5 557/6/5
f 559/3/6 560/3/6 567/3/6
f 561/3/6 562/3/6 568/3/6
f 563/3/6 564/3/6 569/3/6
f 565/3/6 566/3/6 570/3/6
f 559/3/6 567/3/6 571/3/6
f 567/3/6 568/3/6 571/3/6
f 568/3/6 562/3/6 572/3/6
f 571/3/6 568/3/6 572/3/6
f 563/3/6 569/3/6 573/3/6
f 569/3/6 570/3/6 573/3/6
f 570/3/6 566/3/6 574/3/6
f 573/3/6 570/3/6 574/3/6
f 575/10/6 576/10/6 577/10/6
f 577/10/6 576/10/6 578/10/6
f 579/1/6 580/1/6 581/1/6
f 581/1/6 580/1/6 582/1/6
f 583/1/6 584/1/6 585/1/6
f 585/1/6 584/1/6 586/1/6
f 587/12/6 588/12/6 589/12/6
f 589/12/6 588/12/6 590/12/6
f 591/12/6 592/12/6 595/12/6
f 595/12/6 592/12/6 596/12/6
f 593/12/6 594/12/6 597/12/6
f 597/12/6 594/12/6 598/12/6
f 599/12/6 600/12/6 603/12/6
f 600/1/6 601/1/6 603/1/6
f 601/12/6 602/12/6 604/12/6
f 603/1/6 601/1/6 604/1/6
f 599/12/6 603/12/6 605/12/6
f 604/12/6 602/12/6 606/12/6
f 599/12/6 605/12/6 607/12/6
f 605/12/6 606/12/6 607/12/6
f 606/12/6 602/12/6 608/12/6
f 607/12/6 606/12/6 608/12/6
f 609/4/6 610/4/6 611/4/6
f 611/4/6 610/4/6 612/4/6
f 613/6/6 614/6/6 615/6/6
f 615/6/6 614/6/6 616/6/6
f 617/6/6 618/6/6 619/6/6
f 619/6/6 618/6/6 620/6/6
f 617/6/6 619/6/6 621/6/6
f 620/6/6 618/6/6 622/6/6
f 617/6/6 621/6/6 623/6/6
f 621/6/6 622/6/6 623/6/6
f 622/6/6 618/6/6 624/6/6
f 623/6/6 622/6/6 624/6/6
f 625/6/6 626/6/6 627/6/6
f 627/6/6 626/6/6 628/6/6
f 625/6/6 627/6/6 629/6/6
f 628/6/6 626/6/6 630/6/6
f 625/6/6 629/6/6 631/6/6
f 629/6/6 630/6/6 631/6/6
f 630/6/6 626/6/6 632/6/6
f 631/6/6 630/6/6 632/6/6
f 633/5/6 634/5/6 635/5/6
f 635/5/6 634/5/6 636/5/6
f 637/5/6 638/5/6 639/5/6
f 639/5/6 638/5/6 640/5/6
